<?xml version="1.0" encoding="UTF-8" standalone="no"?>
<svg
   xmlns:dc="http://purl.org/dc/elements/1.1/"
   xmlns:cc="http://creativecommons.org/ns#"
   xmlns:rdf="http://www.w3.org/1999/02/22-rdf-syntax-ns#"
   xmlns:svg="http://www.w3.org/2000/svg"
   xmlns="http://www.w3.org/2000/svg"
   xmlns:sodipodi="http://sodipodi.sourceforge.net/DTD/sodipodi-0.dtd"
   xmlns:inkscape="http://www.inkscape.org/namespaces/inkscape"
   width="95.152328mm"
   height="147.76042mm"
   viewBox="0 0 95.152328 147.76042"
   version="1.1"
   id="svg8"
   inkscape:version="1.0 (4035a4f, 2020-05-01)"
   sodipodi:docname="faros_logo.svg">
  <defs
     id="defs2">
    <inkscape:path-effect
       effect="bspline"
       id="path-effect1038"
       is_visible="true"
       lpeversion="1"
       weight="33.333333"
       steps="2"
       helper_size="0"
       apply_no_weight="true"
       apply_with_weight="true"
       only_selected="false" />
  </defs>
  <sodipodi:namedview
     id="base"
     pagecolor="#ffffff"
     bordercolor="#666666"
     borderopacity="1.0"
     inkscape:pageopacity="0.0"
     inkscape:pageshadow="2"
     inkscape:zoom="0.74856993"
     inkscape:cx="-14.898043"
     inkscape:cy="248.48363"
     inkscape:document-units="mm"
     inkscape:current-layer="layer4"
     inkscape:document-rotation="0"
     showgrid="true"
     inkscape:snap-grids="true"
     showguides="true"
     inkscape:guide-bbox="true"
     inkscape:window-width="1440"
     inkscape:window-height="799"
     inkscape:window-x="0"
     inkscape:window-y="23"
     inkscape:window-maximized="0"
     fit-margin-top="5"
     fit-margin-left="5"
     fit-margin-right="5"
     fit-margin-bottom="5"
     lock-margins="true">
    <inkscape:grid
       type="xygrid"
       id="grid957"
       originx="-48.975366"
       originy="-55.854165" />
    <sodipodi:guide
       position="-1.3503711,120.27084"
       orientation="1,0"
       id="guide1118" />
    <sodipodi:guide
       position="34.368378,133.5"
       orientation="1,0"
       id="guide1120" />
    <sodipodi:guide
       position="60.826708,129.53125"
       orientation="1,0"
       id="guide1122" />
    <sodipodi:guide
       position="96.545456,132.17709"
       orientation="1,0"
       id="guide1124" />
    <sodipodi:guide
       position="35.691293,146.72917"
       orientation="1,0"
       id="guide1163" />
    <sodipodi:guide
       position="59.503788,144.08334"
       orientation="1,0"
       id="guide1165" />
    <sodipodi:guide
       position="56.857957,112.33334"
       orientation="0,-1"
       id="guide1167" />
    <sodipodi:guide
       position="51.566288,132.17709"
       orientation="0,-1"
       id="guide1169" />
  </sodipodi:namedview>
  <metadata
     id="metadata5">
    <rdf:RDF>
      <cc:Work
         rdf:about="">
        <dc:format>image/svg+xml</dc:format>
        <dc:type
           rdf:resource="http://purl.org/dc/dcmitype/StillImage" />
        <dc:title></dc:title>
      </cc:Work>
    </rdf:RDF>
  </metadata>
  <g
     sodipodi:insensitive="true"
     inkscape:groupmode="layer"
     id="layer4"
     inkscape:label="water"
     transform="translate(-48.97537,-55.854163)">
    <path
       style="fill:none;stroke:#000000;stroke-width:3;stroke-linecap:round;stroke-linejoin:round;stroke-miterlimit:4;stroke-dasharray:none;stroke-opacity:1"
       d="M 72.760417,186.53125 H 120.38542 Z"
       id="path1178"
       sodipodi:nodetypes="ccc" />
    <path
       style="fill:none;stroke:#000000;stroke-width:3;stroke-linecap:round;stroke-linejoin:round;stroke-miterlimit:4;stroke-dasharray:none;stroke-opacity:1"
       d="m 68.791667,191.82292 43.656253,-1e-5 z"
       id="path1180"
       sodipodi:nodetypes="ccc" />
    <path
       style="fill:none;stroke:#000000;stroke-width:3;stroke-linecap:round;stroke-linejoin:round;stroke-miterlimit:4;stroke-dasharray:none;stroke-opacity:1"
       d="m 117.73958,191.82291 6.61459,1e-5 z"
       id="path1182"
       sodipodi:nodetypes="ccc" />
    <path
       style="fill:none;stroke:#000000;stroke-width:3;stroke-linecap:round;stroke-linejoin:round;stroke-miterlimit:4;stroke-dasharray:none;stroke-opacity:1"
       d="M 64.822916,197.11458 H 93.927082 Z"
       id="path1184" />
    <path
       style="fill:none;stroke:#000000;stroke-width:3;stroke-linecap:round;stroke-linejoin:round;stroke-miterlimit:4;stroke-dasharray:none;stroke-opacity:1"
       d="M 99.218749,197.11458 H 128.32292 Z"
       id="path1186" />
    <path
       style="fill:none;stroke:#000000;stroke-width:3;stroke-linecap:round;stroke-linejoin:round;stroke-miterlimit:4;stroke-dasharray:none;stroke-opacity:1"
       d="M 83.343749,145.52083 H 109.80208 Z"
       id="path1188" />
    <path
       style="fill:none;stroke:#000000;stroke-width:3;stroke-linecap:round;stroke-linejoin:round;stroke-miterlimit:4;stroke-dasharray:none;stroke-opacity:1"
       d="M 96.572919,63.499996 V 60.854163 Z"
       id="path1210" />
  </g>
  <g
     sodipodi:insensitive="true"
     inkscape:label="lighthouse"
     inkscape:groupmode="layer"
     id="layer1"
     style="display:inline"
     transform="translate(-48.97537,-55.854163)">
    <path
       style="fill:none;stroke:#000000;stroke-width:3;stroke-linecap:round;stroke-linejoin:round;stroke-miterlimit:4;stroke-dasharray:none;stroke-opacity:1"
       d="m 84.553855,108.36636 c -14.591552,-14.59156 0,0 0,0 z"
       id="path965" />
    <path
       style="fill:none;stroke:#000000;stroke-width:3;stroke-linecap:round;stroke-linejoin:round;stroke-miterlimit:4;stroke-dasharray:none;stroke-opacity:1"
       d="m 84.666666,108.47917 -6.614584,78.05208 z"
       id="path967" />
    <path
       style="fill:none;stroke:#000000;stroke-width:3;stroke-linecap:round;stroke-linejoin:round;stroke-miterlimit:4;stroke-dasharray:none;stroke-opacity:1"
       d="M 78.052082,96.043734 H 115.09375 Z"
       id="path971" />
    <path
       id="path967-9"
       d="m 108.47917,108.47917 6.61459,78.05207 z"
       style="fill:none;stroke:#000000;stroke-width:3;stroke-linecap:round;stroke-linejoin:round;stroke-miterlimit:4;stroke-dasharray:none;stroke-opacity:1" />
    <path
       style="fill:none;stroke:#000000;stroke-width:3;stroke-linecap:butt;stroke-linejoin:miter;stroke-miterlimit:4;stroke-dasharray:none;stroke-opacity:1"
       d="M 84.666666,108.47917 H 108.47917 Z"
       id="path988"
       sodipodi:nodetypes="ccc" />
    <path
       id="path965-5"
       d="m 84.553856,108.36636 c -14.591552,-14.59156 0,0 0,0 z"
       style="fill:none;stroke:#000000;stroke-width:3;stroke-linecap:round;stroke-linejoin:round;stroke-miterlimit:4;stroke-dasharray:none;stroke-opacity:1" />
    <path
       style="fill:none;stroke:#000000;stroke-width:3;stroke-linecap:round;stroke-linejoin:round;stroke-miterlimit:4;stroke-dasharray:none;stroke-opacity:1"
       d="m 108.47917,108.47917 c 14.59155,-14.591564 0,0 0,0 z"
       id="path965-5-4" />
    <path
       style="fill:none;stroke:#000000;stroke-width:0.264583px;stroke-linecap:butt;stroke-linejoin:miter;stroke-opacity:1"
       d="M 95.249999,63.23541 Z"
       id="path1028" />
    <path
       style="fill:none;stroke:#000000;stroke-width:3;stroke-linecap:round;stroke-linejoin:round;stroke-miterlimit:4;stroke-dasharray:none;stroke-opacity:1"
       d="m 78.052082,101.86458 c 2.65e-4,-2.204594 0,-5.291665 0,-5.291665 z"
       id="path1157" />
    <path
       style="fill:none;stroke:#000000;stroke-width:3;stroke-linecap:round;stroke-linejoin:round;stroke-miterlimit:4;stroke-dasharray:none;stroke-opacity:1"
       d="M 115.09375,101.86458 V 96.572915 Z"
       id="path1159" />
    <path
       style="fill:none;stroke:#000000;stroke-width:3;stroke-linecap:round;stroke-linejoin:round;stroke-miterlimit:4;stroke-dasharray:none;stroke-opacity:1"
       d="m 84.666666,71.437489 23.812494,1e-5 v 19.84375 l -23.812494,-1.1e-5 z"
       id="path1171" />
    <path
       style="fill:none;stroke:#000000;stroke-width:3;stroke-linecap:round;stroke-linejoin:round;stroke-miterlimit:4;stroke-dasharray:none;stroke-opacity:1"
       d="m 82.020832,71.437499 29.104168,-1e-5 z"
       id="path1173" />
    <path
       style="fill:none;stroke:#000000;stroke-width:3;stroke-linecap:round;stroke-linejoin:round;stroke-miterlimit:4;stroke-dasharray:none;stroke-opacity:1"
       d="M 84.666663,71.437499 96.572917,63.5 108.47917,71.437489 H 84.666666 Z"
       id="path1175"
       sodipodi:nodetypes="ccccc" />
  </g>
  <g
     sodipodi:insensitive="true"
     inkscape:groupmode="layer"
     id="layer3"
     inkscape:label="connected"
     style="display:inline"
     transform="translate(-48.97537,-55.854163)">
    <g
       id="g1115"
       transform="translate(0,-10.583334)">
      <path
         inkscape:transform-center-y="-2.8232464"
         inkscape:transform-center-x="4.7054529"
         style="stroke-width:0.0505846"
         d="m 75.191755,82.205608 c -0.727251,0 -1.44297,0.342258 -1.892724,0.981647 -1.797932,2.555235 -2.74832,5.562602 -2.74832,8.697072 0,3.131046 0.948113,6.136084 2.743714,8.690163 0.734197,1.04522 2.177168,1.2973 3.221244,0.56194 1.045224,-0.7342 1.297286,-2.177159 0.56194,-3.221229 -1.244076,-1.77133 -1.901979,-3.856025 -1.901979,-6.030874 0,-2.175997 0.659062,-4.264137 1.906584,-6.035455 0.735346,-1.044069 0.484445,-2.487048 -0.56078,-3.222398 -0.405841,-0.28444 -0.870616,-0.420866 -1.329679,-0.420866 z m 42.764675,-0.01615 c -0.46133,0 -0.92616,0.137586 -1.33194,0.423193 -1.04291,0.736512 -1.29148,2.179491 -0.55497,3.222393 1.25334,1.774814 1.91468,3.866391 1.91468,6.048207 0,2.196849 -0.6706,4.301169 -1.93896,6.08286 -0.74111,1.04059 -0.49719,2.484709 0.54227,3.224719 1.04058,0.74002 2.48473,0.49721 3.22472,-0.54226 1.82915,-2.570259 2.79688,-5.600743 2.79688,-8.765319 0,-3.14263 -0.95504,-6.156859 -2.76222,-8.71559 -0.44975,-0.63706 -1.16432,-0.978151 -1.8904,-0.978151 v 0 z m -15.82727,9.729608 c 0,-3.074389 -2.491647,-5.566041 -5.566054,-5.566041 -3.074375,0 -5.566027,2.491652 -5.566027,5.566041 0,3.074389 2.491652,5.56604 5.566027,5.56604 3.074407,0 5.566054,-2.491651 5.566054,-5.56604 z M 130.93364,74.3861 c -0.62553,0 -1.25451,0.21504 -1.76789,0.654414 -1.13886,0.976998 -1.27069,2.691667 -0.2937,3.831744 3.10909,3.625912 4.82143,8.258909 4.82143,13.042202 0,4.83645 -1.74588,9.50759 -4.91627,13.15205 -0.98508,1.13194 -0.86601,2.84893 0.26709,3.83284 1.13193,0.9851 2.84776,0.86602 3.83285,-0.26708 4.03058,-4.633 6.25055,-10.570189 6.25055,-16.71897 0,-6.080586 -2.17717,-11.969204 -6.13031,-16.580201 -0.5365,-0.62553 -1.29729,-0.946946 -2.06385,-0.946946 z M 62.302477,74.232322 c -0.757304,0 -1.511169,0.314484 -2.047671,0.930755 -4.049107,4.637609 -6.279436,10.58753 -6.279436,16.751324 0,4.286093 1.085702,8.525999 3.139134,12.261759 0.872943,1.5875 1.919335,3.08713 3.111419,4.45722 0.985083,1.13193 2.700916,1.25101 3.832849,0.26708 1.131933,-0.98392 1.251011,-2.70092 0.267093,-3.83285 -0.938857,-1.07876 -1.763242,-2.25927 -2.450027,-3.50913 -1.612939,-2.935629 -2.466201,-6.271343 -2.466201,-9.644025 0,-4.849204 1.753972,-9.529599 4.938228,-13.177467 0.987407,-1.13077 0.870615,-2.846601 -0.260158,-3.834013 -0.514495,-0.449749 -1.151613,-0.670607 -1.785176,-0.670607 z"
         id="path1103"
         sodipodi:nodetypes="scscccsscscccscccscsccssssscccscccscccccsccsccscccc" />
    </g>
  </g>
</svg>
