<?xml version="1.0" encoding="UTF-8" standalone="no"?>
<!-- Generated by IcoMoon.io -->

<svg
   xmlns:dc="http://purl.org/dc/elements/1.1/"
   xmlns:cc="http://creativecommons.org/ns#"
   xmlns:rdf="http://www.w3.org/1999/02/22-rdf-syntax-ns#"
   xmlns:svg="http://www.w3.org/2000/svg"
   xmlns="http://www.w3.org/2000/svg"
   xmlns:sodipodi="http://sodipodi.sourceforge.net/DTD/sodipodi-0.dtd"
   xmlns:inkscape="http://www.inkscape.org/namespaces/inkscape"
   version="1.1"
   width="1480"
   height="1480"
   viewBox="0 0 1480.0001 1480"
   id="svg4"
   sodipodi:docname="icon_large.svg"
   inkscape:version="0.92.2 (5c3e80d, 2017-08-06)">
  <metadata
     id="metadata10">
    <rdf:RDF>
      <cc:Work
         rdf:about="">
        <dc:format>image/svg+xml</dc:format>
        <dc:type
           rdf:resource="http://purl.org/dc/dcmitype/StillImage" />
        <dc:title></dc:title>
      </cc:Work>
    </rdf:RDF>
  </metadata>
  <defs
     id="defs8" />
  <sodipodi:namedview
     pagecolor="#ffffff"
     bordercolor="#666666"
     borderopacity="1"
     objecttolerance="10"
     gridtolerance="10"
     guidetolerance="10"
     inkscape:pageopacity="0"
     inkscape:pageshadow="2"
     inkscape:window-width="1920"
     inkscape:window-height="2025"
     id="namedview6"
     showgrid="false"
     inkscape:zoom="0.4609375"
     inkscape:cx="562.33541"
     inkscape:cy="781.32424"
     inkscape:window-x="1920"
     inkscape:window-y="34"
     inkscape:window-maximized="0"
     inkscape:current-layer="svg4"
     showguides="true"
     inkscape:guide-bbox="true"
     fit-margin-top="0"
     fit-margin-left="0"
     fit-margin-right="0"
     fit-margin-bottom="0">
    <sodipodi:guide
       position="0,1583.7288"
       orientation="1,0"
       id="guide1732"
       inkscape:locked="false" />
    <sodipodi:guide
       position="1479.5933,1553.3559"
       orientation="1,0"
       id="guide1734"
       inkscape:locked="false" />
  </sodipodi:namedview>
  <path
     sodipodi:type="star"
     style="fill:#28afb0;fill-opacity:1;stroke:#37392e;stroke-width:20;stroke-miterlimit:4;stroke-dasharray:none;stroke-opacity:1"
     id="path4531"
     sodipodi:sides="6"
     sodipodi:cx="277.69492"
     sodipodi:cy="121.49153"
     sodipodi:r1="893.29321"
     sodipodi:r2="722.68939"
     sodipodi:arg1="0.95449939"
     sodipodi:arg2="1.4780982"
     inkscape:flatsided="true"
     inkscape:rounded="0"
     inkscape:randomized="0"
     d="M 794.03388,850.44066 -95.424066,933.12876 -611.76303,204.17963 -238.64405,-607.4576 650.8139,-690.1457 1167.1529,38.803434 Z"
     inkscape:transform-center-x="53.302872"
     inkscape:transform-center-y="-40.983596"
     transform="matrix(0.47196289,-0.66799593,0.66799593,0.47196289,527.85468,870.79491)" />
  <g
     inkscape:groupmode="layer"
     id="layer1"
     inkscape:label="lighthouse">
    <g
       id="g5481"
       transform="translate(-7.3176195,-6.2284841)">
      <path
         inkscape:connector-curvature="0"
         style="display:inline;fill:none;stroke:#37392e;stroke-width:22.11568069;stroke-linecap:round;stroke-linejoin:round;stroke-miterlimit:4;stroke-dasharray:none;stroke-opacity:1"
         d="M 572.00424,1173.0156 H 923.09067 Z"
         id="path1178"
         sodipodi:nodetypes="ccc" />
      <path
         inkscape:connector-curvature="0"
         style="display:inline;fill:none;stroke:#37392e;stroke-width:22.11568069;stroke-linecap:round;stroke-linejoin:round;stroke-miterlimit:4;stroke-dasharray:none;stroke-opacity:1"
         d="m 542.74704,1212.0253 321.82929,-10e-5 z"
         id="path1180"
         sodipodi:nodetypes="ccc" />
      <path
         inkscape:connector-curvature="0"
         style="display:inline;fill:none;stroke:#37392e;stroke-width:22.11568069;stroke-linecap:round;stroke-linejoin:round;stroke-miterlimit:4;stroke-dasharray:none;stroke-opacity:1"
         d="m 903.5858,1212.0252 48.76212,10e-5 z"
         id="path1182"
         sodipodi:nodetypes="ccc" />
      <path
         inkscape:connector-curvature="0"
         style="display:inline;fill:none;stroke:#37392e;stroke-width:22.11568069;stroke-linecap:round;stroke-linejoin:round;stroke-miterlimit:4;stroke-dasharray:none;stroke-opacity:1"
         d="M 513.48984,1251.0348 H 728.04265 Z"
         id="path1184" />
      <path
         inkscape:connector-curvature="0"
         style="display:inline;fill:none;stroke:#37392e;stroke-width:22.11568069;stroke-linecap:round;stroke-linejoin:round;stroke-miterlimit:4;stroke-dasharray:none;stroke-opacity:1"
         d="M 767.05225,1251.0348 H 981.60512 Z"
         id="path1186" />
      <path
         inkscape:connector-curvature="0"
         style="display:inline;fill:none;stroke:#37392e;stroke-width:22.11568069;stroke-linecap:round;stroke-linejoin:round;stroke-miterlimit:4;stroke-dasharray:none;stroke-opacity:1"
         d="M 650.02345,870.69118 H 845.07147 Z"
         id="path1188" />
      <path
         inkscape:connector-curvature="0"
         style="display:inline;fill:none;stroke:#37392e;stroke-width:22.11568069;stroke-linecap:round;stroke-linejoin:round;stroke-miterlimit:4;stroke-dasharray:none;stroke-opacity:1"
         d="m 747.54747,266.04235 v -19.5048 z"
         id="path1210" />
      <path
         inkscape:connector-curvature="0"
         style="display:inline;fill:none;stroke:#37392e;stroke-width:22.11568069;stroke-linecap:round;stroke-linejoin:round;stroke-miterlimit:4;stroke-dasharray:none;stroke-opacity:1"
         d="m 658.94422,596.79239 c -107.56738,-107.56741 0,0 0,0 z"
         id="path965" />
      <path
         inkscape:connector-curvature="0"
         style="display:inline;fill:none;stroke:#37392e;stroke-width:22.11568069;stroke-linecap:round;stroke-linejoin:round;stroke-miterlimit:4;stroke-dasharray:none;stroke-opacity:1"
         d="M 659.77585,597.62401 611.01383,1173.0156 Z"
         id="path967" />
      <path
         inkscape:connector-curvature="0"
         style="display:inline;fill:none;stroke:#37392e;stroke-width:22.11568069;stroke-linecap:round;stroke-linejoin:round;stroke-miterlimit:4;stroke-dasharray:none;stroke-opacity:1"
         d="m 611.01383,505.9513 h 273.0672 z"
         id="path971" />
      <path
         inkscape:connector-curvature="0"
         id="path967-9"
         d="m 835.31908,597.62401 48.76203,575.39149 z"
         style="display:inline;fill:none;stroke:#37392e;stroke-width:22.11568069;stroke-linecap:round;stroke-linejoin:round;stroke-miterlimit:4;stroke-dasharray:none;stroke-opacity:1" />
      <path
         inkscape:connector-curvature="0"
         style="display:inline;fill:none;stroke:#37392e;stroke-width:22.11568069;stroke-linecap:butt;stroke-linejoin:miter;stroke-miterlimit:4;stroke-dasharray:none;stroke-opacity:1"
         d="M 659.77585,597.62401 H 835.31908 Z"
         id="path988"
         sodipodi:nodetypes="ccc" />
      <path
         inkscape:connector-curvature="0"
         id="path965-5"
         d="m 658.94422,596.79239 c -107.56738,-107.56741 0,0 0,0 z"
         style="display:inline;fill:none;stroke:#37392e;stroke-width:22.11568069;stroke-linecap:round;stroke-linejoin:round;stroke-miterlimit:4;stroke-dasharray:none;stroke-opacity:1" />
      <path
         inkscape:connector-curvature="0"
         style="display:inline;fill:none;stroke:#37392e;stroke-width:22.11568069;stroke-linecap:round;stroke-linejoin:round;stroke-miterlimit:4;stroke-dasharray:none;stroke-opacity:1"
         d="m 835.31908,597.62401 c 107.56732,-107.56744 0,0 0,0 z"
         id="path965-5-4" />
      <path
         inkscape:connector-curvature="0"
         style="display:inline;fill:none;stroke:#37392e;stroke-width:1.95047772px;stroke-linecap:butt;stroke-linejoin:miter;stroke-opacity:1"
         d="M 737.79505,264.09185 Z"
         id="path1028" />
      <path
         inkscape:connector-curvature="0"
         style="display:inline;fill:none;stroke:#37392e;stroke-width:22.11568069;stroke-linecap:round;stroke-linejoin:round;stroke-miterlimit:4;stroke-dasharray:none;stroke-opacity:1"
         d="m 611.01383,548.86196 c 0.002,-16.25203 0,-39.00958 0,-39.00958 z"
         id="path1157" />
      <path
         inkscape:connector-curvature="0"
         style="display:inline;fill:none;stroke:#37392e;stroke-width:22.11568069;stroke-linecap:round;stroke-linejoin:round;stroke-miterlimit:4;stroke-dasharray:none;stroke-opacity:1"
         d="M 884.08103,548.86196 V 509.85238 Z"
         id="path1159" />
      <path
         inkscape:connector-curvature="0"
         style="display:inline;fill:none;stroke:#37392e;stroke-width:22.11568069;stroke-linecap:round;stroke-linejoin:round;stroke-miterlimit:4;stroke-dasharray:none;stroke-opacity:1"
         d="m 659.77585,324.55671 175.54315,8e-5 v 146.28598 l -175.54315,-7e-5 z"
         id="path1171" />
      <path
         inkscape:connector-curvature="0"
         style="display:inline;fill:none;stroke:#37392e;stroke-width:22.11568069;stroke-linecap:round;stroke-linejoin:round;stroke-miterlimit:4;stroke-dasharray:none;stroke-opacity:1"
         d="m 640.27104,324.55679 214.55282,-8e-5 z"
         id="path1173" />
      <path
         inkscape:connector-curvature="0"
         style="display:inline;fill:#37392e;stroke:#37392e;stroke-width:22.11568069;stroke-linecap:round;stroke-linejoin:round;stroke-miterlimit:4;stroke-dasharray:none;stroke-opacity:1;fill-opacity:1"
         d="m 659.77583,324.55679 87.77162,-58.5144 87.77163,58.51432 H 659.77585 Z"
         id="path1175"
         sodipodi:nodetypes="ccccc" />
      <g
         id="g1115"
         transform="matrix(7.3718933,0,0,7.3718933,35.622229,-280.09205)"
         style="display:inline;fill:#37392e;fill-opacity:1;stroke:#37392e;stroke-opacity:1">
        <path
           inkscape:connector-curvature="0"
           inkscape:transform-center-y="-2.8232464"
           inkscape:transform-center-x="4.7054529"
           style="stroke-width:0.0505846;fill:#37392e;fill-opacity:1;stroke:#37392e;stroke-opacity:1"
           d="m 75.191755,82.205608 c -0.727251,0 -1.44297,0.342258 -1.892724,0.981647 -1.797932,2.555235 -2.74832,5.562602 -2.74832,8.697072 0,3.131046 0.948113,6.136084 2.743714,8.690163 0.734197,1.04522 2.177168,1.2973 3.221244,0.56194 1.045224,-0.7342 1.297286,-2.177159 0.56194,-3.221229 -1.244076,-1.77133 -1.901979,-3.856025 -1.901979,-6.030874 0,-2.175997 0.659062,-4.264137 1.906584,-6.035455 0.735346,-1.044069 0.484445,-2.487048 -0.56078,-3.222398 -0.405841,-0.28444 -0.870616,-0.420866 -1.329679,-0.420866 z m 42.764675,-0.01615 c -0.46133,0 -0.92616,0.137586 -1.33194,0.423193 -1.04291,0.736512 -1.29148,2.179491 -0.55497,3.222393 1.25334,1.774814 1.91468,3.866391 1.91468,6.048207 0,2.196849 -0.6706,4.301169 -1.93896,6.08286 -0.74111,1.04059 -0.49719,2.484709 0.54227,3.224719 1.04058,0.74002 2.48473,0.49721 3.22472,-0.54226 1.82915,-2.570259 2.79688,-5.600743 2.79688,-8.765319 0,-3.14263 -0.95504,-6.156859 -2.76222,-8.71559 -0.44975,-0.63706 -1.16432,-0.978151 -1.8904,-0.978151 v 0 z M 130.93364,74.3861 c -0.62553,0 -1.25451,0.21504 -1.76789,0.654414 -1.13886,0.976998 -1.27069,2.691667 -0.2937,3.831744 3.10909,3.625912 4.82143,8.258909 4.82143,13.042202 0,4.83645 -1.74588,9.50759 -4.91627,13.15205 -0.98508,1.13194 -0.86601,2.84893 0.26709,3.83284 1.13193,0.9851 2.84776,0.86602 3.83285,-0.26708 4.03058,-4.633 6.25055,-10.570189 6.25055,-16.71897 0,-6.080586 -2.17717,-11.969204 -6.13031,-16.580201 -0.5365,-0.62553 -1.29729,-0.946946 -2.06385,-0.946946 z M 62.302477,74.232322 c -0.757304,0 -1.511169,0.314484 -2.047671,0.930755 -4.049107,4.637609 -6.279436,10.58753 -6.279436,16.751324 0,4.286093 1.085702,8.525999 3.139134,12.261759 0.872943,1.5875 1.919335,3.08713 3.111419,4.45722 0.985083,1.13193 2.700916,1.25101 3.832849,0.26708 1.131933,-0.98392 1.251011,-2.70092 0.267093,-3.83285 -0.938857,-1.07876 -1.763242,-2.25927 -2.450027,-3.50913 -1.612939,-2.935629 -2.466201,-6.271343 -2.466201,-9.644025 0,-4.849204 1.753972,-9.529599 4.938228,-13.177467 0.987407,-1.13077 0.870615,-2.846601 -0.260158,-3.834013 -0.514495,-0.449749 -1.151613,-0.670607 -1.785176,-0.670607 z"
           id="path1103"
           sodipodi:nodetypes="scscccsscscccscccscscccccscccscccccsccsccscccc" />
      </g>
      <circle
         style="display:inline;fill:#37392e;stroke-width:22.11568069;stroke-linecap:round;stroke-linejoin:round;fill-opacity:1;stroke:#37392e;stroke-opacity:1"
         id="path904"
         cx="747.38586"
         cy="397.82373"
         r="24.381001" />
    </g>
  </g>
</svg>
