<?xml version="1.0" encoding="UTF-8" standalone="no"?>
<!-- Generated by IcoMoon.io -->

<svg
   xmlns:dc="http://purl.org/dc/elements/1.1/"
   xmlns:cc="http://creativecommons.org/ns#"
   xmlns:rdf="http://www.w3.org/1999/02/22-rdf-syntax-ns#"
   xmlns:svg="http://www.w3.org/2000/svg"
   xmlns="http://www.w3.org/2000/svg"
   xmlns:sodipodi="http://sodipodi.sourceforge.net/DTD/sodipodi-0.dtd"
   xmlns:inkscape="http://www.inkscape.org/namespaces/inkscape"
   version="1.1"
   width="1480"
   height="1480"
   viewBox="0 0 1480.0001 1480"
   id="svg4"
   sodipodi:docname="icon.svg"
   inkscape:version="0.92.2 (5c3e80d, 2017-08-06)">
  <metadata
     id="metadata10">
    <rdf:RDF>
      <cc:Work
         rdf:about="">
        <dc:format>image/svg+xml</dc:format>
        <dc:type
           rdf:resource="http://purl.org/dc/dcmitype/StillImage" />
        <dc:title></dc:title>
      </cc:Work>
    </rdf:RDF>
  </metadata>
  <defs
     id="defs8" />
  <sodipodi:namedview
     pagecolor="#ffffff"
     bordercolor="#666666"
     borderopacity="1"
     objecttolerance="10"
     gridtolerance="10"
     guidetolerance="10"
     inkscape:pageopacity="0"
     inkscape:pageshadow="2"
     inkscape:window-width="1920"
     inkscape:window-height="2025"
     id="namedview6"
     showgrid="false"
     inkscape:zoom="0.4609375"
     inkscape:cx="1000.5727"
     inkscape:cy="781.32424"
     inkscape:window-x="1920"
     inkscape:window-y="34"
     inkscape:window-maximized="0"
     inkscape:current-layer="svg4"
     showguides="true"
     inkscape:guide-bbox="true"
     fit-margin-top="0"
     fit-margin-left="0"
     fit-margin-right="0"
     fit-margin-bottom="0" />
  <path
     sodipodi:type="star"
     style="fill:#28afb0;fill-opacity:1;stroke:#37392e;stroke-width:20;stroke-miterlimit:4;stroke-dasharray:none;stroke-opacity:1"
     id="path4531"
     sodipodi:sides="6"
     sodipodi:cx="277.69492"
     sodipodi:cy="121.49153"
     sodipodi:r1="893.29321"
     sodipodi:r2="722.68939"
     sodipodi:arg1="0.95449939"
     sodipodi:arg2="1.4780982"
     inkscape:flatsided="true"
     inkscape:rounded="0"
     inkscape:randomized="0"
     d="M 794.03388,850.44066 -95.424066,933.12876 -611.76303,204.17963 -238.64405,-607.4576 650.8139,-690.1457 1167.1529,38.803434 Z"
     inkscape:transform-center-x="53.302872"
     inkscape:transform-center-y="-40.983596"
     transform="matrix(0.47196289,-0.66799593,0.66799593,0.47196289,527.85468,870.79491)" />
  <path
     d="m 529.39356,552.60064 c -14.377,0 -28.526,6.766 -37.417,19.406 -35.543,50.514 -54.331,109.966 -54.331,171.931 0,61.897 18.743,121.303 54.24,171.79396 14.514,20.663 43.04,25.646 63.68,11.109 20.663,-14.514 25.646,-43.03996 11.109,-63.67996 -24.594,-35.017 -37.6,-76.229 -37.6,-119.223 0,-43.017 13.029,-84.297 37.691,-119.314 14.537,-20.64 9.577,-49.166 -11.086,-63.703 -8.023,-5.623 -17.211,-8.32 -26.286,-8.32 z m 421.257,-0.32 c -9.12,0 -18.309,2.72 -26.331,8.366 -20.617,14.56 -25.531,43.086 -10.971,63.703 24.777,35.086 37.851,76.434 37.851,119.566 0,43.429 -13.257,85.029 -38.331,120.251 -14.651,20.571 -9.829,49.11996 10.72,63.74896 20.571,14.629 49.12,9.829 63.749,-10.72 36.16004,-50.81096 55.29104,-110.71996 55.29104,-173.27996 0,-62.126 -18.88,-121.714 -54.60604,-172.297 -8.891,-12.594 -23.017,-19.337 -37.371,-19.337 v 0 z m -99.703,192.343 c 0,-60.777 -49.257,-110.034 -110.034,-110.034 -60.777,0 -110.034,49.257 -110.034,110.034 0,60.777 49.257,110.034 110.034,110.034 60.777,0 110.034,-49.257 110.034,-110.034 z m 240.66304,-346.606 c -12.366,0 -24.8,4.251 -34.949,12.937 -22.514,19.314 -25.12,53.211 -5.806,75.749 61.463,71.68 95.314,163.269 95.314,257.829 0,95.611 -34.514,187.95396 -97.189,259.99996 -19.474,22.377 -17.12,56.32 5.28,75.771 22.377,19.474 56.297,17.12 75.771,-5.28 79.68,-91.589 123.566,-208.95996 123.566,-330.51396 0,-120.206 -43.04,-236.617 -121.189,-327.771 -10.606,-12.366 -25.646,-18.72 -40.8,-18.72 z m -699.22304,-3.04 c -14.971,0 -29.874,6.217 -40.48,18.4 -80.046,91.68 -124.137,209.303 -124.137,331.154 0,84.731 21.463,168.54896 62.057,242.39996 17.257,31.383 37.943,61.029 61.509,88.114 19.474,22.377 53.394,24.731 75.771,5.28 22.377,-19.451 24.731,-53.394 5.28,-75.771 -18.56,-21.326 -34.857,-44.663 -48.434,-69.371 -31.886,-58.03396 -48.754,-123.97696 -48.754,-190.65096 0,-95.863 34.674,-188.389 97.623,-260.503 19.52,-22.354 17.211,-56.274 -5.143,-75.794 -10.171,-8.891 -22.766,-13.257 -35.291,-13.257 z"
     id="path2"
     inkscape:connector-curvature="0"
     style="opacity:1;fill:#37392e;fill-opacity:1" />
</svg>
