<?xml version="1.0" encoding="UTF-8" standalone="no"?>
<!-- Created with Inkscape (http://www.inkscape.org/) -->

<svg
   width="1445mm"
   height="400mm"
   viewBox="0 0 1445 400"
   version="1.1"
   id="svg8"
   sodipodi:docname="logo_name_white.svg"
   inkscape:version="1.1 (c68e22c387, 2021-05-23)"
   xmlns:inkscape="http://www.inkscape.org/namespaces/inkscape"
   xmlns:sodipodi="http://sodipodi.sourceforge.net/DTD/sodipodi-0.dtd"
   xmlns="http://www.w3.org/2000/svg"
   xmlns:svg="http://www.w3.org/2000/svg"
   xmlns:rdf="http://www.w3.org/1999/02/22-rdf-syntax-ns#"
   xmlns:cc="http://creativecommons.org/ns#"
   xmlns:dc="http://purl.org/dc/elements/1.1/">
  <defs
     id="defs2">
    <inkscape:path-effect
       effect="bspline"
       id="path-effect908"
       is_visible="true"
       lpeversion="1"
       weight="33.333333"
       steps="2"
       helper_size="0"
       apply_no_weight="true"
       apply_with_weight="true"
       only_selected="false" />
    <inkscape:path-effect
       effect="bspline"
       id="path-effect1038"
       is_visible="true"
       lpeversion="1"
       weight="33.333333"
       steps="2"
       helper_size="0"
       apply_no_weight="true"
       apply_with_weight="true"
       only_selected="false" />
  </defs>
  <sodipodi:namedview
     id="base"
     pagecolor="#ffffff"
     bordercolor="#666666"
     borderopacity="1.0"
     inkscape:pageopacity="0.0"
     inkscape:pageshadow="2"
     inkscape:zoom="0.17500001"
     inkscape:cx="6165.7141"
     inkscape:cy="-131.42857"
     inkscape:document-units="mm"
     inkscape:current-layer="text4775"
     showgrid="false"
     showguides="true"
     inkscape:guide-bbox="true"
     inkscape:window-width="3840"
     inkscape:window-height="2091"
     inkscape:window-x="1920"
     inkscape:window-y="32"
     inkscape:window-maximized="1"
     inkscape:pagecheckerboard="0">
    <sodipodi:guide
       position="2001.3142,1180.2622"
       orientation="1,0"
       id="guide912"
       inkscape:locked="false" />
    <sodipodi:guide
       position="1980.5952,932.08928"
       orientation="1,0"
       id="guide914"
       inkscape:locked="false" />
    <sodipodi:guide
       position="279.32439,455.08331"
       orientation="1,0"
       id="guide937"
       inkscape:locked="false" />
    <sodipodi:guide
       position="1405.3154,501.1964"
       orientation="1,0"
       id="guide939"
       inkscape:locked="false" />
    <sodipodi:guide
       position="320.14582,428.62498"
       orientation="1,0"
       id="guide941"
       inkscape:locked="false" />
    <sodipodi:guide
       position="-0.53453902,431.373"
       orientation="1,0"
       id="guide855"
       inkscape:locked="false" />
    <sodipodi:guide
       position="37.041665,517.82736"
       orientation="1,0"
       id="guide857"
       inkscape:locked="false" />
    <sodipodi:guide
       position="1444.6249,432.40474"
       orientation="1,0"
       id="guide859"
       inkscape:locked="false" />
  </sodipodi:namedview>
  <metadata
     id="metadata5">
    <rdf:RDF>
      <cc:Work
         rdf:about="">
        <dc:format>image/svg+xml</dc:format>
        <dc:type
           rdf:resource="http://purl.org/dc/dcmitype/StillImage" />
        <dc:title />
      </cc:Work>
    </rdf:RDF>
  </metadata>
  <g
     inkscape:label="Layer 1"
     inkscape:groupmode="layer"
     id="layer1"
     transform="translate(0,103)">
    <g
       id="g884"
       transform="matrix(2.8433952,0,0,2.8433952,23.130074,-110.61464)">
      <g
         id="layer4"
         inkscape:label="water"
         transform="translate(-48.97537,-55.854163)">
        <path
           inkscape:connector-curvature="0"
           style="fill:none;stroke:#ffffff;stroke-width:3;stroke-linecap:round;stroke-linejoin:round;stroke-miterlimit:4;stroke-dasharray:none;stroke-opacity:1"
           d="M 72.760417,186.53125 H 120.38542 Z"
           id="path1178"
           sodipodi:nodetypes="ccc" />
        <path
           inkscape:connector-curvature="0"
           style="fill:none;stroke:#ffffff;stroke-width:3;stroke-linecap:round;stroke-linejoin:round;stroke-miterlimit:4;stroke-dasharray:none;stroke-opacity:1"
           d="m 68.791667,191.82292 43.656253,-1e-5 z"
           id="path1180"
           sodipodi:nodetypes="ccc" />
        <path
           inkscape:connector-curvature="0"
           style="fill:none;stroke:#ffffff;stroke-width:3;stroke-linecap:round;stroke-linejoin:round;stroke-miterlimit:4;stroke-dasharray:none;stroke-opacity:1"
           d="m 117.73958,191.82291 6.61459,1e-5 z"
           id="path1182"
           sodipodi:nodetypes="ccc" />
        <path
           inkscape:connector-curvature="0"
           style="fill:none;stroke:#ffffff;stroke-width:3;stroke-linecap:round;stroke-linejoin:round;stroke-miterlimit:4;stroke-dasharray:none;stroke-opacity:1"
           d="M 64.822916,197.11458 H 93.927082 Z"
           id="path1184" />
        <path
           inkscape:connector-curvature="0"
           style="fill:none;stroke:#ffffff;stroke-width:3;stroke-linecap:round;stroke-linejoin:round;stroke-miterlimit:4;stroke-dasharray:none;stroke-opacity:1"
           d="M 99.218749,197.11458 H 128.32292 Z"
           id="path1186" />
        <path
           inkscape:connector-curvature="0"
           style="fill:none;stroke:#ffffff;stroke-width:3;stroke-linecap:round;stroke-linejoin:round;stroke-miterlimit:4;stroke-dasharray:none;stroke-opacity:1"
           d="M 83.343749,145.52083 H 109.80208 Z"
           id="path1188" />
        <path
           inkscape:connector-curvature="0"
           style="fill:#ffffff;stroke:#ffffff;stroke-width:3;stroke-linecap:round;stroke-linejoin:round;stroke-miterlimit:4;stroke-dasharray:none;stroke-opacity:1"
           d="M 96.572919,63.499996 V 60.854163 Z"
           id="path1210" />
      </g>
      <g
         inkscape:label="lighthouse"
         id="layer1-3"
         style="display:inline"
         transform="translate(-48.97537,-55.854163)">
        <path
           style="fill:#ffffff;stroke:#ffffff;stroke-width:3;stroke-linecap:round;stroke-linejoin:round;stroke-miterlimit:4;stroke-dasharray:none;stroke-opacity:1"
           d="m 84.553855,108.36636 c -14.591552,-14.59156 0,0 0,0 z"
           id="path965"
           inkscape:connector-curvature="0" />
        <path
           style="fill:#ffffff;stroke:#ffffff;stroke-width:3;stroke-linecap:round;stroke-linejoin:round;stroke-miterlimit:4;stroke-dasharray:none;stroke-opacity:1"
           d="m 84.666666,108.47917 -6.614584,78.05208 z"
           id="path967"
           inkscape:connector-curvature="0" />
        <path
           style="fill:#ffffff;stroke:#ffffff;stroke-width:3;stroke-linecap:round;stroke-linejoin:round;stroke-miterlimit:4;stroke-dasharray:none;stroke-opacity:1"
           d="M 78.052082,96.043734 H 115.09375 Z"
           id="path971"
           inkscape:connector-curvature="0" />
        <path
           id="path967-9"
           d="m 108.47917,108.47917 6.61459,78.05207 z"
           style="fill:#ffffff;stroke:#ffffff;stroke-width:3;stroke-linecap:round;stroke-linejoin:round;stroke-miterlimit:4;stroke-dasharray:none;stroke-opacity:1"
           inkscape:connector-curvature="0" />
        <path
           style="fill:#ffffff;stroke:#ffffff;stroke-width:3;stroke-linecap:butt;stroke-linejoin:miter;stroke-miterlimit:4;stroke-dasharray:none;stroke-opacity:1"
           d="M 84.666666,108.47917 H 108.47917 Z"
           id="path988"
           sodipodi:nodetypes="ccc"
           inkscape:connector-curvature="0" />
        <path
           id="path965-5"
           d="m 84.553856,108.36636 c -14.591552,-14.59156 0,0 0,0 z"
           style="fill:#ffffff;stroke:#ffffff;stroke-width:3;stroke-linecap:round;stroke-linejoin:round;stroke-miterlimit:4;stroke-dasharray:none;stroke-opacity:1"
           inkscape:connector-curvature="0" />
        <path
           style="fill:#ffffff;stroke:#ffffff;stroke-width:3;stroke-linecap:round;stroke-linejoin:round;stroke-miterlimit:4;stroke-dasharray:none;stroke-opacity:1"
           d="m 108.47917,108.47917 c 14.59155,-14.591564 0,0 0,0 z"
           id="path965-5-4"
           inkscape:connector-curvature="0" />
        <path
           style="fill:#ffffff;stroke:#ffffff;stroke-width:0.26458299px;stroke-linecap:butt;stroke-linejoin:miter;stroke-opacity:1"
           d="M 95.249999,63.23541 Z"
           id="path1028"
           inkscape:connector-curvature="0" />
        <path
           style="fill:#ffffff;stroke:#ffffff;stroke-width:3;stroke-linecap:round;stroke-linejoin:round;stroke-miterlimit:4;stroke-dasharray:none;stroke-opacity:1"
           d="m 78.052082,101.86458 c 2.65e-4,-2.204594 0,-5.291665 0,-5.291665 z"
           id="path1157"
           inkscape:connector-curvature="0" />
        <path
           style="fill:#ffffff;stroke:#ffffff;stroke-width:3;stroke-linecap:round;stroke-linejoin:round;stroke-miterlimit:4;stroke-dasharray:none;stroke-opacity:1"
           d="M 115.09375,101.86458 V 96.572915 Z"
           id="path1159"
           inkscape:connector-curvature="0" />
        <path
           style="fill:#ffffff;fill-opacity:0;stroke:#ffffff;stroke-width:3;stroke-linecap:round;stroke-linejoin:round;stroke-miterlimit:4;stroke-dasharray:none;stroke-opacity:1"
           d="m 84.666666,71.437489 23.812494,1e-5 v 19.84375 l -23.812494,-1.1e-5 z"
           id="path1171"
           inkscape:connector-curvature="0" />
        <path
           style="fill:#ffffff;stroke:#ffffff;stroke-width:3;stroke-linecap:round;stroke-linejoin:round;stroke-miterlimit:4;stroke-dasharray:none;stroke-opacity:1"
           d="m 82.020832,71.437499 29.104168,-1e-5 z"
           id="path1173"
           inkscape:connector-curvature="0" />
        <path
           style="fill:#ffffff;stroke:#ffffff;stroke-width:3;stroke-linecap:round;stroke-linejoin:round;stroke-miterlimit:4;stroke-dasharray:none;stroke-opacity:1"
           d="M 84.666663,71.437499 96.572917,63.5 108.47917,71.437489 H 84.666666 Z"
           id="path1175"
           sodipodi:nodetypes="ccccc"
           inkscape:connector-curvature="0" />
      </g>
      <g
         id="layer3"
         inkscape:label="connected"
         style="display:inline"
         transform="translate(-48.97537,-55.854163)">
        <g
           id="g1115"
           transform="translate(0,-10.583334)">
          <path
             inkscape:transform-center-y="-2.8232464"
             inkscape:transform-center-x="4.7054529"
             style="fill:#ffffff;stroke-width:0.0505846"
             d="m 75.191755,82.205608 c -0.727251,0 -1.44297,0.342258 -1.892724,0.981647 -1.797932,2.555235 -2.74832,5.562602 -2.74832,8.697072 0,3.131046 0.948113,6.136084 2.743714,8.690163 0.734197,1.04522 2.177168,1.2973 3.221244,0.56194 1.045224,-0.7342 1.297286,-2.177159 0.56194,-3.221229 -1.244076,-1.77133 -1.901979,-3.856025 -1.901979,-6.030874 0,-2.175997 0.659062,-4.264137 1.906584,-6.035455 0.735346,-1.044069 0.484445,-2.487048 -0.56078,-3.222398 -0.405841,-0.28444 -0.870616,-0.420866 -1.329679,-0.420866 z m 42.764675,-0.01615 c -0.46133,0 -0.92616,0.137586 -1.33194,0.423193 -1.04291,0.736512 -1.29148,2.179491 -0.55497,3.222393 1.25334,1.774814 1.91468,3.866391 1.91468,6.048207 0,2.196849 -0.6706,4.301169 -1.93896,6.08286 -0.74111,1.04059 -0.49719,2.484709 0.54227,3.224719 1.04058,0.74002 2.48473,0.49721 3.22472,-0.54226 1.82915,-2.570259 2.79688,-5.600743 2.79688,-8.765319 0,-3.14263 -0.95504,-6.156859 -2.76222,-8.71559 -0.44975,-0.63706 -1.16432,-0.978151 -1.8904,-0.978151 v 0 z M 130.93364,74.3861 c -0.62553,0 -1.25451,0.21504 -1.76789,0.654414 -1.13886,0.976998 -1.27069,2.691667 -0.2937,3.831744 3.10909,3.625912 4.82143,8.258909 4.82143,13.042202 0,4.83645 -1.74588,9.50759 -4.91627,13.15205 -0.98508,1.13194 -0.86601,2.84893 0.26709,3.83284 1.13193,0.9851 2.84776,0.86602 3.83285,-0.26708 4.03058,-4.633 6.25055,-10.570189 6.25055,-16.71897 0,-6.080586 -2.17717,-11.969204 -6.13031,-16.580201 -0.5365,-0.62553 -1.29729,-0.946946 -2.06385,-0.946946 z M 62.302477,74.232322 c -0.757304,0 -1.511169,0.314484 -2.047671,0.930755 -4.049107,4.637609 -6.279436,10.58753 -6.279436,16.751324 0,4.286093 1.085702,8.525999 3.139134,12.261759 0.872943,1.5875 1.919335,3.08713 3.111419,4.45722 0.985083,1.13193 2.700916,1.25101 3.832849,0.26708 1.131933,-0.98392 1.251011,-2.70092 0.267093,-3.83285 -0.938857,-1.07876 -1.763242,-2.25927 -2.450027,-3.50913 -1.612939,-2.935629 -2.466201,-6.271343 -2.466201,-9.644025 0,-4.849204 1.753972,-9.529599 4.938228,-13.177467 0.987407,-1.13077 0.870615,-2.846601 -0.260158,-3.834013 -0.514495,-0.449749 -1.151613,-0.670607 -1.785176,-0.670607 z"
             id="path1103"
             sodipodi:nodetypes="scscccsscscccscccscscccccscccscccccsccsccscccc"
             inkscape:connector-curvature="0" />
        </g>
        <circle
           style="fill:#ffffff;stroke-width:3;stroke-linecap:round;stroke-linejoin:round"
           id="path904"
           cx="96.550995"
           cy="81.376183"
           r="3.3072915" />
      </g>
    </g>
    <g
       transform="translate(445.95961,-90.084807)"
       id="layer1-37"
       inkscape:label="Layer 1">
      <g
         aria-label="project: Faros"
         id="text4775"
         style="font-size:183.592px;line-height:1.25;letter-spacing:0px;word-spacing:0px;fill:#ffffff;stroke-width:4.58981">
        <path
           d="m -125.58041,330.20106 h 43.14412 v -6.60931 l -11.749887,-0.91796 -3.121064,-2.93747 v -30.65986 c 6.792904,1.10155 12.484256,1.65233 17.074055,1.65233 27.171616,0 45.163631,-18.72639 45.163631,-47.73392 0,-25.70288 -15.054543,-42.96053 -35.249663,-42.96053 -8.628824,0 -17.257647,3.67184 -26.988023,11.01552 V 200.9523 h -6.976499 l -21.29667,6.60931 v 5.69135 h 13.03503 v 106.48336 l -3.12106,2.93747 -9.91397,0.91796 z m 28.273169,-50.67139 v -61.68691 c 6.976496,-4.03902 13.035032,-6.24212 19.277159,-6.24212 15.972504,0 26.804432,12.66784 26.804432,33.78092 0,22.58182 -12.484256,37.08559 -30.476272,37.08559 -4.406207,0 -9.546783,-0.91796 -15.605319,-2.93748 z"
           style="line-height:2;font-family:'Bitstream Charter';-inkscape-font-specification:'Bitstream Charter'"
           id="path47" />
        <path
           d="m -23.136314,290.17801 h 44.245671 v -6.60931 l -12.8514394,-0.91796 -3.121064,-2.93747 v -52.50732 c 7.5272714,-8.81241 13.9529914,-13.40221 20.0115274,-13.40221 3.855432,0 6.976496,1.46873 9.363192,4.40621 h 5.874944 v -15.78891 c -3.855432,-1.65233 -7.34368,-2.3867 -11.01552,-2.3867 -1.468736,0 -3.121064,0 -4.5898,0.36718 -6.609312,5.32417 -13.218624,11.19912 -19.6443434,17.80843 V 200.9523 h -6.9764958 l -21.2966718,6.60931 v 5.69135 h 13.035032 v 66.46031 l -3.304656,2.93747 -9.730376,0.91796 z"
           style="line-height:2;font-family:'Bitstream Charter';-inkscape-font-specification:'Bitstream Charter'"
           id="path49" />
        <path
           d="m 90.874299,200.03434 c -24.784919,0 -42.593343,18.54279 -42.593343,45.898 0,27.17161 17.992016,45.898 42.593343,45.898 24.601331,0 42.776931,-18.72639 42.776931,-45.898 0,-27.17162 -17.99201,-45.898 -42.776931,-45.898 z m 0,7.89446 c 14.870951,0 25.519291,14.32017 25.519291,38.00354 0,23.86696 -10.64834,38.00354 -25.519291,38.00354 -14.68736,0 -25.335695,-14.32017 -25.335695,-38.00354 0,-23.86696 10.464743,-38.00354 25.335695,-38.00354 z"
           style="line-height:2;font-family:'Bitstream Charter';-inkscape-font-specification:'Bitstream Charter'"
           id="path51" />
        <path
           d="m 160.45557,213.25296 v 79.86252 c 0,16.89046 -2.93747,26.25366 -9.73037,28.45676 l -17.80843,-10.83193 c -4.5898,2.01951 -6.7929,5.50776 -6.7929,9.54679 0,5.87494 4.5898,9.91396 12.66785,9.91396 9.91397,0 19.27716,-4.22261 26.43725,-11.93348 10.09756,-11.01552 10.46474,-24.60132 10.46474,-43.5113 V 200.9523 h -6.9765 l -21.29667,6.60931 v 5.69135 z m -3.85543,-42.40975 c 0,5.87495 4.77339,10.46475 10.64834,10.46475 5.87494,0 10.64833,-4.5898 10.64833,-10.46475 0,-5.87494 -4.77339,-10.64833 -10.64833,-10.64833 -5.87495,0 -10.64834,4.5898 -10.64834,10.64833 z"
           style="line-height:2;font-family:'Bitstream Charter';-inkscape-font-specification:'Bitstream Charter'"
           id="path53" />
        <path
           d="m 271.52853,270.71726 c -10.46475,6.97649 -19.64435,10.64833 -28.82395,10.64833 -18.54279,0 -30.84345,-13.95299 -30.84345,-37.45276 v -2.01952 h 59.4838 c 0.1836,-2.01951 0.1836,-3.85543 0.1836,-5.69135 0,-22.58181 -13.03504,-36.16762 -33.04656,-36.16762 -24.60133,0 -42.40975,18.90997 -42.40975,46.63237 0,26.98802 16.70687,45.16363 40.94101,45.16363 11.5663,0 23.49978,-3.67184 34.5153,-11.01552 z m -16.33969,-36.53481 h -42.40975 c 1.10155,-15.60532 11.56629,-25.88647 23.31618,-25.88647 12.30066,0 19.09357,8.07805 19.09357,22.949 z"
           style="line-height:2;font-family:'Bitstream Charter';-inkscape-font-specification:'Bitstream Charter'"
           id="path55" />
        <path
           d="m 357.44943,282.46715 v -9.54679 c -7.71086,5.14058 -15.23813,7.71087 -23.31618,7.71087 -19.09357,0 -31.21064,-13.40222 -31.21064,-35.98404 0,-23.13259 11.19911,-37.26917 26.98802,-37.26917 3.12107,0 6.05854,0.91796 8.81242,2.57029 v 15.05454 c 2.75388,1.83592 5.50776,2.75388 8.26164,2.75388 6.24213,0 10.28115,-3.85543 10.28115,-9.73038 0,-10.64833 -9.91397,-17.99201 -27.5388,-17.99201 -25.70288,0 -43.5113,18.54279 -43.5113,45.898 0,27.17161 16.33969,45.53081 41.3082,45.53081 9.91397,0 19.82793,-3.12106 29.92549,-8.996 z"
           style="line-height:2;font-family:'Bitstream Charter';-inkscape-font-specification:'Bitstream Charter'"
           id="path57" />
        <path
           d="m 377.4608,212.88578 v 59.30021 c 0,13.03504 3.85543,18.5428 19.09357,18.5428 7.16008,0 15.42172,-1.28515 24.05055,-4.03903 v -6.7929 c -4.22262,0.91796 -8.44523,1.46873 -12.66785,1.46873 -12.85144,0 -15.23814,-6.05853 -15.23814,-20.01152 v -48.46829 h 27.90599 v -8.62882 H 392.69893 V 184.7962 h -6.7929 l -7.89446,17.07406 -12.11707,5.32417 v 5.69135 z"
           style="line-height:2;font-family:'Bitstream Charter';-inkscape-font-specification:'Bitstream Charter'"
           id="path59" />
        <path
           d="m 451.81553,201.87026 c -6.42572,0 -11.56629,4.95698 -11.56629,11.5663 0,6.42571 5.14057,11.74988 11.56629,11.74988 6.42572,0 11.74989,-5.32417 11.74989,-11.74988 0,-6.60932 -5.32417,-11.5663 -11.74989,-11.5663 z m 0,66.64389 c -6.42572,0 -11.56629,5.14058 -11.56629,11.74989 0,6.60931 5.14057,11.5663 11.56629,11.5663 6.42572,0 11.74989,-5.14058 11.74989,-11.5663 0,-6.60931 -5.32417,-11.74989 -11.74989,-11.74989 z"
           style="line-height:2;font-family:'Bitstream Charter';-inkscape-font-specification:'Bitstream Charter'"
           id="path61" />
        <path
           d="m 538.28701,290.17801 h 46.26518 v -7.52727 l -13.03503,-0.91796 -3.12107,-2.57029 v -46.99955 h 30.10909 l 2.57029,2.75388 1.83592,13.40221 h 8.62882 V 207.7452 h -8.62882 l -1.83592,13.40222 -2.57029,2.57029 h -30.10909 v -48.2847 h 41.3082 l 2.3867,2.75388 2.75388,17.44124 h 10.09756 v -28.64035 h -88.12416 v 7.34368 l 11.93348,1.10155 3.12106,2.57029 v 101.15919 l -3.12106,2.57029 -10.46474,0.91796 z"
           style="line-height:2;font-family:'Bitstream Charter';-inkscape-font-specification:'Bitstream Charter'"
           id="path63" />
        <path
           d="m 677.63304,279.52967 2.38669,10.64834 h 25.88647 v -6.60931 l -9.73037,-0.91796 -3.30466,-2.93747 v -53.24168 c 0,-18.54279 -8.07805,-26.43725 -27.35521,-26.43725 -23.13259,0 -37.08558,9.54678 -37.08558,20.74589 0,4.40621 1.46874,5.69136 5.69135,5.69136 h 12.66785 v -15.42173 c 4.95698,-2.01951 9.36319,-2.93747 13.95299,-2.93747 13.21863,0 16.89047,6.05853 16.89047,20.5623 v 5.87494 c -36.7184,8.81242 -53.60887,14.32018 -53.60887,33.41375 0,13.7694 8.99601,23.49977 23.49978,23.49977 8.81241,0 18.54279,-4.03902 30.10909,-11.93348 z m 0,-6.24212 c -9.1796,5.32416 -16.70688,8.26164 -22.76541,8.26164 -9.1796,0 -14.68736,-6.05854 -14.68736,-15.05455 0,-13.40221 11.56629,-18.3592 37.45277,-25.51929 z"
           style="line-height:2;font-family:'Bitstream Charter';-inkscape-font-specification:'Bitstream Charter'"
           id="path65" />
        <path
           d="m 714.90218,290.17801 h 44.24568 v -6.60931 l -12.85144,-0.91796 -3.12107,-2.93747 v -52.50732 c 7.52727,-8.81241 13.95299,-13.40221 20.01153,-13.40221 3.85543,0 6.97649,1.46873 9.36319,4.40621 h 5.87494 v -15.78891 c -3.85543,-1.65233 -7.34368,-2.3867 -11.01552,-2.3867 -1.46873,0 -3.12106,0 -4.58979,0.36718 -6.60932,5.32417 -13.21863,11.19912 -19.64435,17.80843 V 200.9523 h -6.97649 l -21.29668,6.60931 v 5.69135 h 13.03504 v 66.46031 l -3.30466,2.93747 -9.73038,0.91796 z"
           style="line-height:2;font-family:'Bitstream Charter';-inkscape-font-specification:'Bitstream Charter'"
           id="path67" />
        <path
           d="m 828.91281,200.03434 c -24.78492,0 -42.59334,18.54279 -42.59334,45.898 0,27.17161 17.99201,45.898 42.59334,45.898 24.60133,0 42.77694,-18.72639 42.77694,-45.898 0,-27.17162 -17.99202,-45.898 -42.77694,-45.898 z m 0,7.89446 c 14.87095,0 25.51929,14.32017 25.51929,38.00354 0,23.86696 -10.64834,38.00354 -25.51929,38.00354 -14.68736,0 -25.33569,-14.32017 -25.33569,-38.00354 0,-23.86696 10.46474,-38.00354 25.33569,-38.00354 z"
           style="line-height:2;font-family:'Bitstream Charter';-inkscape-font-specification:'Bitstream Charter'"
           id="path69" />
        <path
           d="m 941.63821,204.07336 c -6.24213,-2.75388 -13.40222,-4.03902 -21.48027,-4.03902 -20.92949,0 -32.49578,9.54678 -32.49578,25.70288 0,12.30066 8.07805,18.17561 23.68337,25.1521 12.11707,5.50776 18.72638,8.81242 18.72638,18.3592 0,8.62883 -6.60931,14.87095 -17.25765,14.87095 -5.32417,0 -10.46474,-1.46873 -15.60532,-4.4062 l -2.2031,-15.60532 h -8.81242 v 23.86696 c 6.42572,2.38669 14.50377,3.85543 23.86696,3.85543 21.66386,0 34.33171,-10.46475 34.33171,-27.5388 0,-6.79291 -2.57029,-12.30067 -6.9765,-15.78891 -6.05854,-4.95699 -13.03503,-7.52728 -19.46075,-10.64834 -10.28115,-4.95698 -15.60532,-8.81242 -15.60532,-16.70687 0,-8.26164 5.50776,-13.21862 15.23813,-13.21862 4.40621,0 8.81242,1.28514 13.58581,3.85543 l 1.46874,13.03503 h 8.99601 z"
           style="line-height:2;font-family:'Bitstream Charter';-inkscape-font-specification:'Bitstream Charter'"
           id="path71" />
      </g>
    </g>
  </g>
</svg>
